<svg xmlns="http://www.w3.org/2000/svg" width="375" height="375" fill="none" viewBox="0 0 375 375">
  <mask id="a" width="375" height="375" x="0" y="0" maskUnits="userSpaceOnUse" style="mask-type:alpha">
    <path fill="#C4C4C4" d="M0 0h375v375H0z"/>
  </mask>
  <g mask="url(#a)">
    <path fill="#4838D1" fill-rule="evenodd" d="M0 76.572c82.475 0 149.333-70.182 149.333-156.756S82.475-236.94 0-236.94s-149.333 70.182-149.333 156.756S-82.475 76.572 0 76.572Zm0 78.378c123.712 0 224-105.273 224-235.134S123.712-315.318 0-315.318-224-210.045-224-80.184C-224 49.676-123.712 154.95 0 154.95Z" clip-rule="evenodd"/>
    <path fill="#F77A55" d="M424 163.076c0 36.206-29.997 65.556-67 65.556s-67-29.35-67-65.556c0-36.205 29.997-65.555 67-65.555s67 29.35 67 65.555Z"/>
  </g>
</svg>
