<svg xmlns="http://www.w3.org/2000/svg" width="21" height="20" fill="none" viewBox="0 0 21 20">
  <path fill="#6A6A8B" fill-rule="evenodd" d="M18.855 5.66a2.997 2.997 0 0 1 1.153 2.128l.01.201v8.11c0 2.09-1.654 3.79-3.727 3.9h-1.994a1.833 1.833 0 0 1-1.793-1.69l-.01-.14v-2.86a.635.635 0 0 0-.54-.62l-.091-.01H9.187c-.32.01-.58.24-.62.54l-.01.09v2.85c0 .06-.011.13-.02.18l-.01.02-.011.07c-.12.85-.82 1.5-1.693 1.56l-.13.01H4.9a3.92 3.92 0 0 1-3.918-3.7v-8.31A2.965 2.965 0 0 1 1.984 5.8L8.226.788a3.646 3.646 0 0 1 4.367-.12l.162.12 6.1 4.87Zm-.24 10.598.01-.16v-8.1a1.619 1.619 0 0 0-.5-1.129l-.13-.11-6.112-4.88a2.263 2.263 0 0 0-2.645-.11l-.151.11-6.092 4.9a1.55 1.55 0 0 0-.61 1.06l-.01.16v8.1a2.51 2.51 0 0 0 2.365 2.5h1.953c.22 0 .411-.15.44-.36l.021-.18.01-.05v-2.7c0-1.07.822-1.94 1.874-2.02h2.825c1.071 0 1.943.82 2.024 1.87v3.01c0 .21.15.39.35.43H16.1a2.503 2.503 0 0 0 2.515-2.34Z" clip-rule="evenodd"/>
</svg>
