<svg xmlns="http://www.w3.org/2000/svg" width="21" height="20" fill="none" viewBox="0 0 21 20">
  <path fill="#4838D1" d="M7.63 18.773v-3.057c0-.78.638-1.414 1.426-1.414h2.88c.378 0 .74.15 1.008.414.267.265.418.625.418 1v3.057a1.21 1.21 0 0 0 .356.867c.231.23.545.36.873.36h1.964a3.47 3.47 0 0 0 2.448-1 3.406 3.406 0 0 0 1.015-2.422V7.867a2.47 2.47 0 0 0-.897-1.902L12.438.675a3.108 3.108 0 0 0-3.956.072L1.95 5.965a2.472 2.472 0 0 0-.969 1.902v8.702C.982 18.464 2.532 20 4.445 20h1.92c.68 0 1.233-.544 1.237-1.218l.027-.009Z"/>
</svg>
