<svg xmlns="http://www.w3.org/2000/svg" width="19" height="20" fill="none" viewBox="0 0 19 20">
  <path fill="#6A6A8B" fill-rule="evenodd" d="M5.63 20c-.412 0-.804-.032-1.173-.095l-.218-.041C1.863 19.371.483 17.555.483 14.791V5.209c0-.334.02-.654.06-.96C.893 1.564 2.74 0 5.63 0h7.74c3.202 0 5.117 1.92 5.147 5.132v9.659c0 3.257-1.92 5.209-5.147 5.209H5.63Zm0-18.543c-2.46 0-3.708 1.263-3.708 3.752v9.582c0 2.489 1.248 3.752 3.708 3.752h7.731c2.46 0 3.699-1.263 3.699-3.752V5.209c0-2.489-1.24-3.752-3.699-3.752h-7.73Zm8.184 12.777a.72.72 0 0 0-.714-.724H5.875a.72.72 0 0 0-.715.724c0 .4.32.724.715.724H13.1a.719.719 0 0 0 .714-.724ZM13.1 9.271a.724.724 0 0 1 .692.339.744.744 0 0 1 0 .78.724.724 0 0 1-.692.339H5.875A.73.73 0 0 1 5.23 10a.73.73 0 0 1 .644-.729H13.1Zm-3.824-3.5a.73.73 0 0 0-.644-.729H5.884a.73.73 0 0 0-.645.729.73.73 0 0 0 .645.728h2.748a.73.73 0 0 0 .644-.728Z" clip-rule="evenodd"/>
</svg>
