<svg xmlns="http://www.w3.org/2000/svg" width="19" height="20" fill="none" viewBox="0 0 19 20">
  <path fill="#4838D1" fill-rule="evenodd" d="M5.302 0H13.7c3.095 0 4.818 1.78 4.818 4.83v10.33c0 3.1-1.723 4.84-4.818 4.84H5.302C2.256 20 .483 18.26.483 15.16V4.83C.483 1.78 2.256 0 5.303 0Zm.27 4.66v-.01h2.995a.784.784 0 0 1 0 1.57H5.573a.781.781 0 1 1 0-1.56Zm0 6.08h7.855c.431 0 .782-.35.782-.78 0-.43-.35-.781-.782-.781H5.573a.781.781 0 1 0 0 1.561Zm0 4.57h7.855c.4-.04.702-.381.702-.78 0-.41-.302-.75-.702-.79H5.573a.794.794 0 0 0-.751 1.21c.16.25.45.4.75.36Z" clip-rule="evenodd"/>
</svg>
