<svg xmlns="http://www.w3.org/2000/svg" width="25" height="24" fill="none" viewBox="0 0 25 24">
  <g clip-path="url(#a)">
    <path fill="#4285F4" d="M23.926 12.225c0-.984-.08-1.701-.252-2.445H12.452v4.438h6.587c-.133 1.102-.85 2.764-2.443 3.88l-.023.148 3.548 2.75.246.025c2.258-2.086 3.56-5.156 3.56-8.796Z"/>
    <path fill="#34A853" d="M12.452 23.918c3.227 0 5.936-1.063 7.915-2.897l-3.771-2.923c-1.01.704-2.364 1.195-4.144 1.195-3.16 0-5.843-2.086-6.8-4.969l-.14.012-3.689 2.857-.048.134c1.965 3.906 6.003 6.59 10.677 6.59Z"/>
    <path fill="#FBBC05" d="M5.653 14.324a7.365 7.365 0 0 1-.399-2.365c0-.824.146-1.621.385-2.365l-.006-.159-3.736-2.903-.122.059A11.975 11.975 0 0 0 .5 11.959c0 1.926.465 3.747 1.275 5.368l3.878-3.003Z"/>
    <path fill="#EB4335" d="M12.452 4.624c2.245 0 3.758.97 4.622 1.78l3.373-3.295C18.375 1.183 15.679 0 12.452 0 7.778 0 3.74 2.684 1.775 6.59l3.864 3.004c.97-2.884 3.653-4.97 6.813-4.97Z"/>
  </g>
  <defs>
    <clipPath id="a">
      <path fill="#fff" d="M.5 0h24v24H.5z"/>
    </clipPath>
  </defs>
</svg>
