<svg xmlns="http://www.w3.org/2000/svg" width="25" height="24" fill="none" viewBox="0 0 25 24">
  <g clip-path="url(#a)">
    <path fill="#395185" d="M23.175 24c.732 0 1.325-.593 1.325-1.325V1.325C24.5.593 23.907 0 23.175 0H1.825C1.093 0 .5.593.5 1.325v21.35C.5 23.407 1.093 24 1.825 24h21.35Z"/>
    <path fill="#fff" d="M17.06 24v-9.294h3.12l.466-3.622H17.06V8.771c0-1.048.29-1.763 1.795-1.763h1.918v-3.24c-.332-.045-1.47-.143-2.795-.143-2.766 0-4.659 1.688-4.659 4.788v2.671h-3.128v3.622h3.128V24h3.74Z"/>
  </g>
  <defs>
    <clipPath id="a">
      <path fill="#fff" d="M.5 0h24v24H.5z"/>
    </clipPath>
  </defs>
</svg>
