<svg xmlns="http://www.w3.org/2000/svg" width="21" height="21" fill="none" viewBox="0 0 21 21">
  <path fill="#fff" fill-rule="evenodd" d="M10.5 2.167a8.333 8.333 0 1 0 0 16.666 8.333 8.333 0 0 0 0-16.666Zm0 1.163a7.17 7.17 0 1 1 0 14.34 7.17 7.17 0 0 1 0-14.34Zm-.94 3.882-.087-.008a.959.959 0 0 0-.483.116.965.965 0 0 0-.436.479c-.04.096-.108.393-.14.565-.077.423-.122 1.075-.13 1.79l-.001.24c0 .758.041 1.48.118 1.955l.043.219c.042.194.098.4.143.488a.97.97 0 0 0 .891.524c.158-.003.49-.114.722-.21.831-.35 2.296-1.331 2.973-1.993l.225-.234c.086-.091.125-.134.158-.179a.966.966 0 0 0-.02-1.17l-.068-.077-.186-.2c-.64-.68-2.312-1.804-3.166-2.136a2.868 2.868 0 0 0-.556-.169Zm.028 1.214.104.038c.655.255 2.046 1.178 2.64 1.746l.176.182-.067.072c-.495.533-1.956 1.524-2.692 1.833l-.16.059-.04-.196c-.058-.356-.095-.92-.102-1.534l-.001-.232c0-.67.033-1.295.092-1.697l.028-.166.022-.105Z" clip-rule="evenodd"/>
</svg>
