<svg xmlns="http://www.w3.org/2000/svg" width="21" height="20" fill="none" viewBox="0 0 21 20">
  <path fill="#6A6A8B" fill-rule="evenodd" d="M10.11 0C4.793 0 .482 4.208.482 9.4c0 5.19 4.311 9.399 9.63 9.399 2.274 0 4.365-.77 6.013-2.058l3.13 3.048.083.07c.29.21.702.186.965-.072a.712.712 0 0 0-.001-1.023l-3.093-3.012A9.243 9.243 0 0 0 19.74 9.4c0-5.19-4.312-9.4-9.63-9.4Zm0 1.448c4.5 0 8.147 3.56 8.147 7.951 0 4.392-3.647 7.952-8.146 7.952-4.5 0-8.147-3.56-8.147-7.952 0-4.391 3.648-7.951 8.147-7.951Z" clip-rule="evenodd"/>
</svg>
